<?xml version="1.0" encoding="utf-8"?>
<!-- Generator: Adobe Illustrator 22.1.0, SVG Export Plug-In . SVG Version: 6.00 Build 0)  -->
<svg version="1.1" id="Layer_1" xmlns="http://www.w3.org/2000/svg" xmlns:xlink="http://www.w3.org/1999/xlink" x="0px" y="0px"
	 viewBox="0 0 30 32.5" style="enable-background:new 0 0 30 32.5;" xml:space="preserve">
<style type="text/css">
	.st0{fill:#DD1919;}
</style>
<title>Icons / icon-add-photos</title>
<desc>Created with Sketch.</desc>
<g>
	<g transform="translate(-402.000000, -340.000000)">
		<g transform="translate(402.000000, 340.000000)">
			<path class="st0" d="M26.2,14.3l-0.5,9.9c0,0.4-0.2,0.7-0.5,0.9c-0.3,0.2-0.6,0.3-1,0.3L5.1,24.6c-0.4,0-0.7-0.2-1-0.4
				s-0.4-0.5-0.3-0.9l0.1-2.6l-0.9,0.1c-0.3,0-0.6,0-0.9-0.3c-0.3-0.2-0.4-0.5-0.4-0.8L0.5,6.1c0-0.3,0-0.6,0.3-0.8
				C1,5.1,1.3,4.9,1.6,4.9l14.1-1.1c-0.2,0.6-0.4,1.1-0.5,1.8l-12.3,1c-0.4,0-0.6,0.2-0.6,0.5v0.1l0.9,10.2l1-1.4l0.4-7.7
				c0-0.3,0.2-0.6,0.4-0.9c0.3-0.2,0.6-0.4,1-0.4l9,0.4c0,0.7,0.1,1.3,0.3,1.9L7.1,8.9c-0.4,0-0.6,0.2-0.7,0.5v0.1l-0.2,3.6
				l-0.4,7.3v0.4l0.3-0.4l5.9-6.2c0.2-0.2,0.5-0.3,0.8-0.3c0.3,0,0.6,0.1,0.8,0.4l2.5,2.8l0.2,0.2c0.2,0.2,0.3,0.2,0.6,0.2
				c0.1,0,0.3-0.1,0.5-0.2l1-0.7c0.2-0.2,0.4-0.2,0.6-0.2c0.3,0,0.5,0.1,0.6,0.3l1.6,1.9l2.7,3.1l0.3-6.8
				C25,14.8,25.6,14.6,26.2,14.3L26.2,14.3z M18.4,2.4c1.3-1.3,2.8-1.9,4.6-1.9s3.3,0.6,4.6,1.9s1.9,2.8,1.9,4.6s-0.6,3.3-1.9,4.6
				s-2.8,1.9-4.6,1.9s-3.3-0.6-4.6-1.9S16.5,8.8,16.5,7S17.1,3.7,18.4,2.4z M26.3,7.7V6.3h-2.7V3.7h-1.3v2.7h-2.7v1.3h2.7v2.7h1.3
				V7.7H26.3z"/>
		</g>
	</g>
</g>
</svg>
