<?xml version="1.0" encoding="utf-8"?>
<!-- Generator: Adobe Illustrator 22.1.0, SVG Export Plug-In . SVG Version: 6.00 Build 0)  -->
<svg version="1.1" id="Layer_1" xmlns="http://www.w3.org/2000/svg" xmlns:xlink="http://www.w3.org/1999/xlink" x="0px" y="0px"
	 viewBox="0 0 34.8 30" style="enable-background:new 0 0 34.8 30;" xml:space="preserve">
<g>
	<g>
		<g>
			<path d="M14.9,24c-6.6,0-12-5.4-12-12s5.4-12,12-12s12,5.4,12,12S21.5,24,14.9,24z M14.9,1c-6.1,0-11,4.9-11,11s4.9,11,11,11
				s11-4.9,11-11S20.9,1,14.9,1z"/>
		</g>
		<g>
			<path d="M25.5,17h-13c-0.3,0-0.5-0.2-0.5-0.5s0.2-0.5,0.5-0.5h13c0.3,0,0.5,0.2,0.5,0.5S25.7,17,25.5,17z"/>
		</g>
		<g>
			<path d="M16.3,23.9c-0.2,0-0.3-0.1-0.4-0.3L9.4,12.2c-0.1-0.2-0.1-0.5,0.2-0.7c0.2-0.1,0.5-0.1,0.7,0.2l6.5,11.5
				c0.1,0.2,0.1,0.5-0.2,0.7C16.5,23.9,16.4,23.9,16.3,23.9z"/>
		</g>
		<g>
			<path d="M5.8,19.6c-0.1,0-0.2,0-0.2-0.1c-0.2-0.1-0.3-0.4-0.2-0.7l6.5-11.6c0.1-0.2,0.4-0.3,0.7-0.2c0.2,0.1,0.3,0.4,0.2,0.7
				L6.3,19.3C6.2,19.5,6,19.6,5.8,19.6z"/>
		</g>
		<g>
			<path d="M17.3,8h-13C4,8,3.8,7.8,3.8,7.5S4,7,4.3,7h13c0.3,0,0.5,0.2,0.5,0.5S17.6,8,17.3,8z"/>
		</g>
		<g>
			<path d="M19.9,12.5c-0.2,0-0.3-0.1-0.4-0.3L13,0.8c-0.1-0.2-0.1-0.5,0.2-0.7c0.2-0.1,0.5-0.1,0.7,0.2l6.5,11.4
				c0.1,0.2,0.1,0.5-0.2,0.7C20.1,12.5,20,12.5,19.9,12.5z"/>
		</g>
		<g>
			<path d="M17.4,17c-0.1,0-0.2,0-0.2-0.1c-0.2-0.1-0.3-0.4-0.2-0.7l6.6-11.6c0.1-0.2,0.4-0.3,0.7-0.2c0.2,0.1,0.3,0.4,0.2,0.7
				l-6.6,11.6C17.7,16.9,17.5,17,17.4,17z"/>
		</g>
	</g>
</g>
</svg>
