<?xml version="1.0" encoding="utf-8"?>
<!-- Generator: Adobe Illustrator 22.1.0, SVG Export Plug-In . SVG Version: 6.00 Build 0)  -->
<svg version="1.1" id="Layer_1" xmlns="http://www.w3.org/2000/svg" xmlns:xlink="http://www.w3.org/1999/xlink" x="0px" y="0px"
	 viewBox="0 0 123.7 125" style="enable-background:new 0 0 123.7 125;" xml:space="preserve">
<title>b</title>
<g>
	<path d="M59.5,8.4c-2.2,0-4,1.8-4,4v41.9L43.8,42.6c-1.6-1.6-4.1-1.6-5.7,0s-1.6,4.1,0,5.7l18.6,18.4l0,0l0.6,0.5h0.2l0.5,0.3h3.1
		l0.5-0.3h0.2l0.6-0.5l0,0l18.5-18.5c1.6-1.6,1.6-4.1,0-5.7c-1.6-1.6-4.1-1.6-5.7,0L63.5,54.3V12.4C63.5,10.2,61.7,8.4,59.5,8.4z"/>
	<path d="M97,57.2c-2.2,0-4,1.8-4,4v18.4c0,2.2-1.8,4-4,4H30c-2.2,0-4-1.8-4-4V61.2c0-2.2-1.8-4-4-4s-4,1.8-4,4v18.4
		c0,6.6,5.4,12,12,12h59c6.6,0,12-5.4,12-12V61.2C101,59,99.2,57.2,97,57.2z"/>
</g>
</svg>
