<?xml version="1.0" encoding="utf-8"?>
<!-- Generator: Adobe Illustrator 22.1.0, SVG Export Plug-In . SVG Version: 6.00 Build 0)  -->
<svg version="1.1" id="Layer_1" xmlns="http://www.w3.org/2000/svg" xmlns:xlink="http://www.w3.org/1999/xlink" x="0px" y="0px"
	 viewBox="0 0 114 125" style="enable-background:new 0 0 114 125;" xml:space="preserve">
<title>Artboard 221</title>
<path d="M80.6,22C76.2,7.2,60.6-1.2,45.8,3.3C34,6.8,25.9,17.7,25.8,30v0.4C15,32.6,8,43.2,10.2,54c1.9,9.3,10.1,16,19.6,16h12
	c2.2,0,4-1.8,4-4c0-2.2-1.8-4-4-4h-12c-6.6,0.1-12-5.3-12.1-11.9S23,38.1,29.6,38h0.5c1.2,0,2.3-0.5,3.1-1.4
	c0.8-0.9,1.1-2.1,0.9-3.3c-2.3-10.8,4.6-21.4,15.4-23.7S71,14.2,73.3,25.1c0.1,0.7,0.2,1.3,0.3,2c0.3,2.2,2.4,3.7,4.5,3.4
	c0.1,0,0.2,0,0.3,0c1.1-0.2,2.3-0.4,3.4-0.3c8.8,0,16,7.2,16,16s-7.2,16-16,16h-8c-2.2,0-4,1.8-4,4c0,2.2,1.8,4,4,4h8
	c13.3-0.3,23.7-11.3,23.4-24.6S93.9,21.7,80.6,22z"/>
<path d="M57.8,46c-2.2,0-4,1.8-4,4v34.3l-5.2-5.2c-1.6-1.6-4.1-1.6-5.7,0c-1.6,1.6-1.6,4.1,0,5.7l0,0l12,12c1.6,1.6,4.1,1.6,5.7,0
	c0,0,0,0,0,0l12-12c1.6-1.6,1.6-4.1,0-5.7s-4.1-1.6-5.7,0l0,0l-5.2,5.2V50C61.8,47.8,60,46,57.8,46z"/>
</svg>
