<?xml version="1.0" encoding="utf-8"?>
<!-- Generator: Adobe Illustrator 22.1.0, SVG Export Plug-In . SVG Version: 6.00 Build 0)  -->
<svg version="1.1" id="Layer_1" xmlns="http://www.w3.org/2000/svg" xmlns:xlink="http://www.w3.org/1999/xlink" x="0px" y="0px"
	 viewBox="0 0 100 125" style="enable-background:new 0 0 100 125;" xml:space="preserve">
<style type="text/css">
	.st0{fill:none;}
</style>
<g>
	<path class="st0" d="M26.6,68.8c0.2-0.2,0.5-0.4,0.7-0.6C27,68.4,26.8,68.6,26.6,68.8z"/>
	<path class="st0" d="M36.7,66.6c0.1,0,0.3,0.1,0.4,0.1C37,66.7,36.9,66.7,36.7,66.6z"/>
	<path class="st0" d="M38.5,67.5c0.1,0.1,0.2,0.1,0.3,0.2C38.7,67.7,38.6,67.6,38.5,67.5z"/>
	<path class="st0" d="M37.6,67c0.1,0.1,0.2,0.1,0.4,0.2C37.9,67.1,37.7,67.1,37.6,67z"/>
	<path class="st0" d="M35.8,66.4c0.1,0,0.3,0.1,0.4,0.1C36.1,66.4,35.9,66.4,35.8,66.4z"/>
	<path class="st0" d="M39.3,68.1c0.1,0.1,0.2,0.1,0.3,0.2C39.5,68.3,39.4,68.2,39.3,68.1z"/>
	<path class="st0" d="M31,66.3c0.2,0,0.3-0.1,0.5-0.1C31.4,66.2,31.2,66.3,31,66.3z"/>
	<path class="st0" d="M28.4,67.4c0.2-0.1,0.3-0.2,0.5-0.3C28.7,67.2,28.5,67.3,28.4,67.4z"/>
	<path class="st0" d="M29.2,66.9c0.2-0.1,0.3-0.2,0.5-0.2C29.6,66.8,29.4,66.9,29.2,66.9z"/>
	<path class="st0" d="M30.1,66.6c0.2-0.1,0.3-0.1,0.5-0.2C30.5,66.5,30.3,66.5,30.1,66.6z"/>
	<path class="st0" d="M27.5,68c0.2-0.1,0.3-0.3,0.5-0.4C27.9,67.7,27.7,67.9,27.5,68z"/>
	<path class="st0" d="M33.9,66.1c0.1,0,0.3,0,0.4,0C34.2,66.1,34.1,66.1,33.9,66.1z"/>
	<path class="st0" d="M33.3,66c-0.1,0-0.3,0-0.4,0C33.1,66,33.2,66,33.3,66C33.4,66,33.4,66,33.3,66z"/>
	<path class="st0" d="M32,66.1c0.2,0,0.3-0.1,0.5-0.1C32.3,66.1,32.1,66.1,32,66.1z"/>
	<path class="st0" d="M34.9,66.2c0.1,0,0.3,0,0.4,0.1C35.1,66.2,35,66.2,34.9,66.2z"/>
	<path d="M39.5,61v1.4c-1.9-0.9-4-1.4-6.2-1.4c-3.9,0-7.6,1.5-10.3,4.3c-1.9,1.9-2,5-0.1,7l18,19c0.9,1,2.3,1.6,3.6,1.6h28
		c2.4,0,4.5-1.7,4.9-4.1l3.8-20.9c1.1-6.2-2.5-12.3-8.5-14.2l-2-0.7c4.2-4.9,6.7-11.2,6.7-18.2c0-15.4-12.6-28-28-28s-28,12.6-28,28
		C21.5,46.8,29,57,39.5,61z M74.6,60.7c0.1,0.2,0.3,0.3,0.4,0.5c1.2,1.6,1.7,3.7,1.3,5.8l-3.8,20.9h-28l-18-19l0,0
		c0.2-0.2,0.5-0.4,0.7-0.6c0.1-0.1,0.2-0.1,0.3-0.2c0.2-0.1,0.3-0.3,0.5-0.4c0.1-0.1,0.2-0.1,0.3-0.2c0.2-0.1,0.3-0.2,0.5-0.3
		c0.1-0.1,0.2-0.1,0.4-0.2c0.2-0.1,0.3-0.2,0.5-0.2c0.1-0.1,0.3-0.1,0.4-0.1c0.2-0.1,0.3-0.1,0.5-0.2c0.1,0,0.3-0.1,0.4-0.1
		c0.2,0,0.3-0.1,0.5-0.1c0.1,0,0.3,0,0.4-0.1c0.2,0,0.3-0.1,0.5-0.1c0.1,0,0.3,0,0.4,0s0.3,0,0.4,0c0,0,0,0,0.1,0c0.2,0,0.3,0,0.5,0
		c0.1,0,0.3,0,0.4,0c0.2,0,0.3,0,0.5,0.1c0.1,0,0.3,0,0.4,0.1c0.2,0,0.3,0.1,0.5,0.1c0.1,0,0.3,0.1,0.4,0.1c0.2,0.1,0.3,0.1,0.5,0.2
		c0.1,0,0.3,0.1,0.4,0.1c0.2,0.1,0.3,0.2,0.5,0.2c0.1,0.1,0.2,0.1,0.4,0.2s0.3,0.2,0.5,0.3c0.1,0.1,0.2,0.1,0.3,0.2
		c0.2,0.1,0.3,0.3,0.5,0.4c0.1,0.1,0.2,0.1,0.3,0.2c0.3,0.2,0.5,0.5,0.7,0.7l4.2,4.4v-2.6V53.3V34.8c0-0.7,0.1-1.3,0.4-1.9
		c0.5-1.2,1.5-2.2,2.7-2.7c0.6-0.3,1.3-0.4,1.9-0.4s1.3,0.1,1.9,0.4c1.2,0.5,2.2,1.5,2.7,2.7c0.3,0.6,0.4,1.3,0.4,1.9v18.1L71,58.4
		C72.6,58.9,73.7,59.6,74.6,60.7z M49.5,24.9c-5.5,0-10,4.5-10,10v9.8c-2.5-2.5-4-6-4-9.8c0-7.7,6.3-14,14-14s14,6.3,14,14
		c0,3.8-1.5,7.3-4,9.8v-9.8C59.5,29.3,55,24.9,49.5,24.9z M49.5,11.8c12.7,0,23,10.3,23,23c0,6.5-2.7,12.3-6.9,16.5l-4.5-1.5
		c4.5-3.5,7.4-8.9,7.4-15c0-10.5-8.5-19-19-19s-19,8.5-19,19c0,6.8,3.6,12.8,9,16.1v2.4v2.2c-7.7-3.7-13-11.6-13-20.7
		C26.5,22.1,36.8,11.8,49.5,11.8z"/>
</g>
</svg>
