<?xml version="1.0" encoding="utf-8"?>
<!-- Generator: Adobe Illustrator 22.1.0, SVG Export Plug-In . SVG Version: 6.00 Build 0)  -->
<svg version="1.1" id="Layer_1" xmlns="http://www.w3.org/2000/svg" xmlns:xlink="http://www.w3.org/1999/xlink" x="0px" y="0px"
	 viewBox="0 0 100 125" style="enable-background:new 0 0 100 125;" xml:space="preserve">
<title>Delete 3.5</title>
<desc>Created with Sketch.</desc>
<g>
	<g>
		<path d="M63.1,22c0.1,0.5,0.7,1,1.2,1H75c1.9,0,3.5,1.6,3.5,3.5c0,1.6-1.1,2.9-2.5,3.4l-1.8,50.3c-0.1,4.1-3.5,7.4-7.6,7.4h-33
			c-4.1,0-7.5-3.3-7.6-7.4L24,29.9c-1.5-0.4-2.5-1.8-2.5-3.4c0-1.9,1.6-3.5,3.5-3.5h10.6c0.5,0,1.1-0.4,1.2-1l0.7-3
			c0.9-3.7,4.5-6.5,8.4-6.5h8c3.8,0,7.4,2.8,8.4,6.5L63.1,22z M47.5,39v34c0,1.4,1.1,2.5,2.5,2.5s2.5-1.1,2.5-2.5V39
			c0-1.4-1.1-2.5-2.5-2.5S47.5,37.6,47.5,39z M36,39.1l1,34c0,1.4,1.2,2.5,2.6,2.4c1.4,0,2.5-1.2,2.4-2.6l-1-34
			c0-1.4-1.2-2.5-2.6-2.4S36,37.7,36,39.1z M59,38.9l-1,34c0,1.4,1,2.5,2.4,2.6c1.4,0,2.5-1,2.6-2.4l1-34c0-1.4-1-2.5-2.4-2.6
			S59,37.5,59,38.9z M44.4,23h11.3c0.3,0,0.4-0.2,0.4-0.5l-0.4-1.8c-0.1-0.6-1-1.2-1.6-1.2h-8c-0.6,0-1.4,0.6-1.6,1.2L44,22.5
			C43.9,22.8,44.1,23,44.4,23z"/>
	</g>
</g>
</svg>
