<?xml version="1.0" encoding="utf-8"?>
<!-- Generator: Adobe Illustrator 22.1.0, SVG Export Plug-In . SVG Version: 6.00 Build 0)  -->
<svg version="1.1" id="Layer_1" xmlns="http://www.w3.org/2000/svg" xmlns:xlink="http://www.w3.org/1999/xlink" x="0px" y="0px"
	 viewBox="0 0 74 80" style="enable-background:new 0 0 74 80;" xml:space="preserve">
<title>heart</title>
<path d="M22.3,13.8c-10,0-18.1,8.1-18.1,18.1c0,6.6,2.1,11.9,6.9,17.5c7,8.2,24.2,20.2,25,20.7c0.3,0.2,0.6,0.3,1,0.3s0.7-0.1,1-0.3
	c0.8-0.5,18-12.6,25-20.7c4.8-5.6,6.9-10.9,6.9-17.5c0-10-8.1-18.1-18.1-18.1c-4.5,0-8.8,1.7-12.1,4.7c-1,0.9-1.8,2-2.6,3.1
	c-0.8-1.1-1.6-2.2-2.6-3.1C31.1,15.5,26.8,13.8,22.3,13.8z M22.3,17.1c3.7,0,7.2,1.4,9.9,3.8c1.4,1.2,2.5,2.7,3.3,4.4
	c0.6,1.2,2.4,1.2,3,0c0.8-1.7,1.9-3.1,3.3-4.4c2.7-2.5,6.2-3.8,9.9-3.8c8.1,0,14.8,6.6,14.8,14.8c0,5.8-1.8,10.3-6.1,15.3
	C54.6,54,40.4,64.3,37,66.7C33.6,64.3,19.4,54,13.6,47.2c-4.3-5-6.1-9.5-6.1-15.3C7.5,23.8,14.2,17.1,22.3,17.1L22.3,17.1z"/>
</svg>
